# xmcd
#
# Track frame offsets:
#	150
#	59516
#	122284
#	182351
#	238171
#
# Disc length: 3812 seconds
#
# Revision: 1
# Processed by: cddbd v1.5.2PL0 Copyright (c) Steve Scherf et al.
# Submitted via: audiograbber 1.83.01
#
DISCID=390ee205
DTITLE=Various Artist - Feng Shui
DYEAR=2014
DGENRE=Dream
TTITLE0=White Moon
TTITLE1=The Blue Amulet
TTITLE2=Soulbirds
TTITLE3=Blue Magic Water
TTITLE4=Magic Nature (Nighttime)
EXTD=
EXTT0=
EXTT1=
EXTT2=
EXTT3=
EXTT4=
PLAYORDER=
